<svg xmlns="http://www.w3.org/2000/svg" width="800" height="800" viewBox="0 0 24 24"><path fill="#6C47FF" d="M14.006 5.541 10.97 2.757c-.63-.582-1.605-.582-2.235 0L5.695 5.54A.816.816 0 0 0 5.37 6.5c0 .441.37.798.812.8h7.438c.444 0 .813-.357.813-.8a.818.818 0 0 0-.428-.96ZM5.37 17.5c0 .442.37.8.813.8h11.625c.444 0 .813-.358.813-.8a.816.816 0 0 0-.326-.96l-3.038-2.782c-.63-.582-1.606-.582-2.235 0l-3.042 2.783a.817.817 0 0 0-.326.959Zm3.038-5.217c.629.582 1.605.582 2.235 0l3.037-2.782a.82.82 0 0 0 .325-.96c0-.441-.37-.798-.813-.8h-7.43a.804.804 0 0 0-.82.8c0 .398.124.715.326.959Z"/></svg>
