<svg xmlns="http://www.w3.org/2000/svg" width="32" height="32" viewBox="0 0 32 32"><rect width="32" height="32" rx="6" fill="#F7DF1E"/><path d="M22.7 21.6c.4.7.9 1.3 1.8 1.3.8 0 1.3-.4 1.3-1 0-.7-.5-.9-1.5-1.4l-.5-.2c-1.4-.6-2.3-1.2-2.3-2.7 0-1.3 1-2.2 2.5-2.2 1.1 0 1.9.4 2.5 1.4l-1.4.9c-.3-.6-.7-.8-1.1-.8-.5 0-.9.3-.9.8 0 .5.4.7 1.2 1l.5.2c1.7.7 2.6 1.3 2.6 2.8 0 1.6-1.2 2.3-2.8 2.3-1.6 0-2.5-.8-3-1.8l1.5-.9zm-6.1.2c.3.6.6 1.1 1.4 1.1.7 0 1.1-.3 1.1-1.3v-6.7h1.8v6.8c0 1.8-1 2.6-2.5 2.6-1.3 0-2.1-.7-2.5-1.5l1.7-1z" fill="#000"/></svg>
